<svg xmlns="http://www.w3.org/2000/svg" version="1.1" xmlns:xlink="http://www.w3.org/1999/xlink" xmlns:svgjs="http://svgjs.dev/svgjs" viewBox="0 0 800 800"><rect width="100%" height="100%" fill="#c8daf0"></rect><g fill="#170393"><rect width="135" height="1" x="363.5" y="55.5" rx="0.5" transform="rotate(45, 431, 56)" opacity="0.50"></rect><rect width="161" height="1" x="680.5" y="87.5" rx="0.5" transform="rotate(45, 761, 88)" opacity="0.33"></rect><rect width="108" height="1" x="537" y="757.5" rx="0.5" transform="rotate(45, 591, 758)" opacity="0.33"></rect><rect width="155" height="1" x="601.5" y="758.5" rx="0.5" transform="rotate(45, 679, 759)" opacity="0.56"></rect><rect width="247" height="1" x="139.5" y="751.5" rx="0.5" transform="rotate(45, 263, 752)" opacity="0.52"></rect><rect width="139" height="1" x="666.5" y="704.5" rx="0.5" transform="rotate(45, 736, 705)" opacity="0.69"></rect><rect width="210" height="1" x="514" y="141.5" rx="0.5" transform="rotate(45, 619, 142)" opacity="0.54"></rect><rect width="241" height="1" x="-19.5" y="233.5" rx="0.5" transform="rotate(45, 101, 234)" opacity="0.30"></rect><rect width="117" height="1" x="167.5" y="448.5" rx="0.5" transform="rotate(45, 226, 449)" opacity="0.80"></rect><rect width="241" height="1" x="565.5" y="463.5" rx="0.5" transform="rotate(45, 686, 464)" opacity="0.35"></rect><rect width="236" height="1" x="642" y="356.5" rx="0.5" transform="rotate(45, 760, 357)" opacity="0.70"></rect><rect width="350" height="1" x="503" y="339.5" rx="0.5" transform="rotate(45, 678, 340)" opacity="0.88"></rect><rect width="375" height="1" x="100.5" y="533.5" rx="0.5" transform="rotate(45, 288, 534)" opacity="0.68"></rect><rect width="304" height="1" x="404" y="603.5" rx="0.5" transform="rotate(45, 556, 604)" opacity="0.35"></rect><rect width="312" height="1" x="57" y="545.5" rx="0.5" transform="rotate(45, 213, 546)" opacity="0.10"></rect><rect width="32" height="1" x="139" y="374.5" rx="0.5" transform="rotate(45, 155, 375)" opacity="0.79"></rect><rect width="167" height="1" x="684.5" y="762.5" rx="0.5" transform="rotate(45, 768, 763)" opacity="0.11"></rect><rect width="197" height="1" x="170.5" y="389.5" rx="0.5" transform="rotate(45, 269, 390)" opacity="0.52"></rect><rect width="116" height="1" x="80" y="499.5" rx="0.5" transform="rotate(45, 138, 500)" opacity="0.87"></rect><rect width="248" height="1" x="300" y="661.5" rx="0.5" transform="rotate(45, 424, 662)" opacity="0.42"></rect><rect width="165" height="1" x="106.5" y="177.5" rx="0.5" transform="rotate(45, 189, 178)" opacity="0.25"></rect><rect width="215" height="1" x="512.5" y="660.5" rx="0.5" transform="rotate(45, 620, 661)" opacity="0.35"></rect><rect width="137" height="1" x="661.5" y="553.5" rx="0.5" transform="rotate(45, 730, 554)" opacity="0.32"></rect><rect width="125" height="1" x="31.5" y="75.5" rx="0.5" transform="rotate(45, 94, 76)" opacity="0.12"></rect><rect width="305" height="1" x="247.5" y="754.5" rx="0.5" transform="rotate(45, 400, 755)" opacity="0.59"></rect><rect width="355" height="1" x="152.5" y="150.5" rx="0.5" transform="rotate(45, 330, 151)" opacity="0.49"></rect><rect width="128" height="1" x="185" y="160.5" rx="0.5" transform="rotate(45, 249, 161)" opacity="0.62"></rect><rect width="228" height="1" x="475" y="336.5" rx="0.5" transform="rotate(45, 589, 337)" opacity="0.90"></rect><rect width="172" height="1" x="282" y="484.5" rx="0.5" transform="rotate(45, 368, 485)" opacity="0.48"></rect><rect width="224" height="1" x="-74" y="472.5" rx="0.5" transform="rotate(45, 38, 473)" opacity="0.94"></rect><rect width="218" height="1" x="562" y="257.5" rx="0.5" transform="rotate(45, 671, 258)" opacity="0.37"></rect><rect width="307" height="1" x="325.5" y="535.5" rx="0.5" transform="rotate(45, 479, 536)" opacity="0.12"></rect><rect width="115" height="1" x="298.5" y="408.5" rx="0.5" transform="rotate(45, 356, 409)" opacity="0.65"></rect><rect width="147" height="1" x="74.5" y="208.5" rx="0.5" transform="rotate(45, 148, 209)" opacity="0.66"></rect><rect width="239" height="1" x="256.5" y="331.5" rx="0.5" transform="rotate(45, 376, 332)" opacity="0.55"></rect><rect width="271" height="1" x="352.5" y="624.5" rx="0.5" transform="rotate(45, 488, 625)" opacity="0.80"></rect><rect width="170" height="1" x="-59" y="184.5" rx="0.5" transform="rotate(45, 26, 185)" opacity="0.33"></rect><rect width="291" height="1" x="-75.5" y="688.5" rx="0.5" transform="rotate(45, 70, 689)" opacity="0.51"></rect><rect width="90" height="1" x="634" y="185.5" rx="0.5" transform="rotate(45, 679, 186)" opacity="0.91"></rect><rect width="312" height="1" x="-62" y="763.5" rx="0.5" transform="rotate(45, 94, 764)" opacity="0.11"></rect><rect width="166" height="1" x="-8" y="569.5" rx="0.5" transform="rotate(45, 75, 570)" opacity="0.63"></rect><rect width="216" height="1" x="379" y="388.5" rx="0.5" transform="rotate(45, 487, 389)" opacity="0.68"></rect><rect width="228" height="1" x="-75" y="262.5" rx="0.5" transform="rotate(45, 39, 263)" opacity="0.54"></rect><rect width="221" height="1" x="301.5" y="161.5" rx="0.5" transform="rotate(45, 412, 162)" opacity="0.45"></rect><rect width="102" height="1" x="188" y="68.5" rx="0.5" transform="rotate(45, 239, 69)" opacity="1.00"></rect><rect width="262" height="1" x="547" y="51.5" rx="0.5" transform="rotate(45, 678, 52)" opacity="0.19"></rect><rect width="333" height="1" x="172.5" y="246.5" rx="0.5" transform="rotate(45, 339, 247)" opacity="0.35"></rect><rect width="114" height="1" x="98" y="47.5" rx="0.5" transform="rotate(45, 155, 48)" opacity="0.67"></rect><rect width="236" height="1" x="166" y="318.5" rx="0.5" transform="rotate(45, 284, 319)" opacity="0.62"></rect><rect width="324" height="1" x="439" y="528.5" rx="0.5" transform="rotate(45, 601, 529)" opacity="0.66"></rect><rect width="42" height="1" x="527" y="211.5" rx="0.5" transform="rotate(45, 548, 212)" opacity="0.98"></rect><rect width="99" height="1" x="-19.5" y="66.5" rx="0.5" transform="rotate(45, 30, 67)" opacity="0.85"></rect><rect width="372" height="1" x="321" y="732.5" rx="0.5" transform="rotate(45, 507, 733)" opacity="0.59"></rect><rect width="323" height="1" x="427.5" y="426.5" rx="0.5" transform="rotate(45, 589, 427)" opacity="0.50"></rect><rect width="291" height="1" x="592.5" y="636.5" rx="0.5" transform="rotate(45, 738, 637)" opacity="0.96"></rect><rect width="67" height="1" x="57.5" y="155.5" rx="0.5" transform="rotate(45, 91, 156)" opacity="0.51"></rect><rect width="64" height="1" x="724" y="210.5" rx="0.5" transform="rotate(45, 756, 211)" opacity="0.20"></rect><rect width="69" height="1" x="725.5" y="290.5" rx="0.5" transform="rotate(45, 760, 291)" opacity="0.90"></rect><rect width="267" height="1" x="298.5" y="256.5" rx="0.5" transform="rotate(45, 432, 257)" opacity="0.83"></rect><rect width="340" height="1" x="-27" y="597.5" rx="0.5" transform="rotate(45, 143, 598)" opacity="0.91"></rect><rect width="199" height="1" x="-74.5" y="605.5" rx="0.5" transform="rotate(45, 25, 606)" opacity="0.78"></rect><rect width="132" height="1" x="-28" y="356.5" rx="0.5" transform="rotate(45, 38, 357)" opacity="0.66"></rect><rect width="265" height="1" x="-24.5" y="315.5" rx="0.5" transform="rotate(45, 108, 316)" opacity="0.33"></rect><rect width="229" height="1" x="266.5" y="570.5" rx="0.5" transform="rotate(45, 381, 571)" opacity="0.91"></rect><rect width="236" height="1" x="87" y="663.5" rx="0.5" transform="rotate(45, 205, 664)" opacity="0.92"></rect><rect width="54" height="1" x="469" y="161.5" rx="0.5" transform="rotate(45, 496, 162)" opacity="0.07"></rect><rect width="173" height="1" x="123.5" y="345.5" rx="0.5" transform="rotate(45, 210, 346)" opacity="0.87"></rect><rect width="329" height="1" x="322.5" y="314.5" rx="0.5" transform="rotate(45, 487, 315)" opacity="0.76"></rect><rect width="144" height="1" x="112" y="278.5" rx="0.5" transform="rotate(45, 184, 279)" opacity="0.40"></rect><rect width="145" height="1" x="397.5" y="458.5" rx="0.5" transform="rotate(45, 470, 459)" opacity="0.30"></rect><rect width="112" height="1" x="266" y="651.5" rx="0.5" transform="rotate(45, 322, 652)" opacity="0.73"></rect><rect width="173" height="1" x="24.5" y="425.5" rx="0.5" transform="rotate(45, 111, 426)" opacity="0.99"></rect><rect width="210" height="1" x="218" y="43.5" rx="0.5" transform="rotate(45, 323, 44)" opacity="0.08"></rect><rect width="257" height="1" x="460.5" y="260.5" rx="0.5" transform="rotate(45, 589, 261)" opacity="0.36"></rect><rect width="153" height="1" x="680.5" y="432.5" rx="0.5" transform="rotate(45, 757, 433)" opacity="0.46"></rect><rect width="265" height="1" x="125.5" y="246.5" rx="0.5" transform="rotate(45, 258, 247)" opacity="0.32"></rect><rect width="425" height="1" x="341.5" y="54.5" rx="0.5" transform="rotate(45, 554, 55)" opacity="0.43"></rect></g></svg>