<svg xmlns="http://www.w3.org/2000/svg" version="1.1" xmlns:xlink="http://www.w3.org/1999/xlink" xmlns:svgjs="http://svgjs.dev/svgjs" viewBox="0 0 800 800"><defs><linearGradient x1="50%" y1="0%" x2="50%" y2="100%" id="ffflurry-grad" gradientTransform="rotate(270)"><stop stop-color="hsl(238, 82%, 13%)" stop-opacity="1" offset="0%"></stop><stop stop-color="hsl(184, 74%, 44%)" stop-opacity="1" offset="45%"></stop><stop stop-color="hsl(332, 87%, 70%)" stop-opacity="1" offset="100%"></stop></linearGradient></defs><rect width="100%" height="100%" fill="hsl(238, 82%, 13%)"></rect><g fill="url(#ffflurry-grad)"><rect width="389" height="3" x="-161.5" y="93.5" rx="1.5" transform="rotate(45, 33, 95)" opacity="0.87"></rect><rect width="335" height="3" x="311.5" y="672.5" rx="1.5" transform="rotate(45, 479, 674)" opacity="0.65"></rect><rect width="181" height="3" x="626.5" y="431.5" rx="1.5" transform="rotate(45, 717, 433)" opacity="0.18"></rect><rect width="576" height="3" x="-256" y="689.5" rx="1.5" transform="rotate(45, 32, 691)" opacity="0.24"></rect><rect width="52" height="3" x="6" y="379.5" rx="1.5" transform="rotate(45, 32, 381)" opacity="0.64"></rect><rect width="503" height="3" x="289.5" y="611.5" rx="1.5" transform="rotate(45, 541, 613)" opacity="0.90"></rect><rect width="74" height="3" x="552" y="331.5" rx="1.5" transform="rotate(45, 589, 333)" opacity="0.78"></rect><rect width="165" height="3" x="327.5" y="192.5" rx="1.5" transform="rotate(45, 410, 194)" opacity="0.62"></rect><rect width="296" height="3" x="6" y="20.5" rx="1.5" transform="rotate(45, 154, 22)" opacity="0.71"></rect><rect width="462" height="3" x="-50" y="611.5" rx="1.5" transform="rotate(45, 181, 613)" opacity="0.47"></rect><rect width="286" height="3" x="391" y="412.5" rx="1.5" transform="rotate(45, 534, 414)" opacity="0.32"></rect><rect width="299" height="3" x="593.5" y="746.5" rx="1.5" transform="rotate(45, 743, 748)" opacity="0.26"></rect><rect width="157" height="3" x="234.5" y="565.5" rx="1.5" transform="rotate(45, 313, 567)" opacity="0.90"></rect><rect width="321" height="3" x="-101.5" y="174.5" rx="1.5" transform="rotate(45, 59, 176)" opacity="0.65"></rect><rect width="50" height="3" x="633" y="519.5" rx="1.5" transform="rotate(45, 658, 521)" opacity="0.81"></rect><rect width="221" height="3" x="442.5" y="60.5" rx="1.5" transform="rotate(45, 553, 62)" opacity="0.49"></rect><rect width="307" height="3" x="580.5" y="491.5" rx="1.5" transform="rotate(45, 734, 493)" opacity="0.63"></rect><rect width="279" height="3" x="267.5" y="475.5" rx="1.5" transform="rotate(45, 407, 477)" opacity="0.50"></rect><rect width="825" height="3" x="-67.5" y="279.5" rx="1.5" transform="rotate(45, 345, 281)" opacity="0.86"></rect><rect width="515" height="3" x="413.5" y="198.5" rx="1.5" transform="rotate(45, 671, 200)" opacity="0.44"></rect><rect width="340" height="3" x="-19" y="522.5" rx="1.5" transform="rotate(45, 151, 524)" opacity="0.44"></rect><rect width="175" height="3" x="262.5" y="505.5" rx="1.5" transform="rotate(45, 350, 507)" opacity="0.94"></rect><rect width="85" height="3" x="1.5" y="545.5" rx="1.5" transform="rotate(45, 44, 547)" opacity="0.40"></rect><rect width="267" height="3" x="123.5" y="145.5" rx="1.5" transform="rotate(45, 257, 147)" opacity="0.16"></rect><rect width="482" height="3" x="367" y="255.5" rx="1.5" transform="rotate(45, 608, 257)" opacity="0.42"></rect><rect width="138" height="3" x="438" y="157.5" rx="1.5" transform="rotate(45, 507, 159)" opacity="0.24"></rect><rect width="118" height="3" x="200" y="247.5" rx="1.5" transform="rotate(45, 259, 249)" opacity="0.90"></rect><rect width="694" height="3" x="-195" y="220.5" rx="1.5" transform="rotate(45, 152, 222)" opacity="0.38"></rect><rect width="476" height="3" x="169" y="383.5" rx="1.5" transform="rotate(45, 407, 385)" opacity="0.21"></rect><rect width="52" height="3" x="576" y="144.5" rx="1.5" transform="rotate(45, 602, 146)" opacity="0.94"></rect><rect width="447" height="3" x="311.5" y="748.5" rx="1.5" transform="rotate(45, 535, 750)" opacity="0.88"></rect><rect width="333" height="3" x="482.5" y="662.5" rx="1.5" transform="rotate(45, 649, 664)" opacity="0.81"></rect><rect width="641" height="3" x="122.5" y="303.5" rx="1.5" transform="rotate(45, 443, 305)" opacity="0.90"></rect><rect width="49" height="3" x="707.5" y="659.5" rx="1.5" transform="rotate(45, 732, 661)" opacity="0.29"></rect><rect width="400" height="3" x="119" y="410.5" rx="1.5" transform="rotate(45, 319, 412)" opacity="0.44"></rect><rect width="616" height="3" x="412" y="316.5" rx="1.5" transform="rotate(45, 720, 318)" opacity="0.89"></rect><rect width="556" height="3" x="348" y="37.5" rx="1.5" transform="rotate(45, 626, 39)" opacity="0.27"></rect><rect width="450" height="3" x="355" y="542.5" rx="1.5" transform="rotate(45, 580, 544)" opacity="0.39"></rect><rect width="234" height="3" x="95" y="454.5" rx="1.5" transform="rotate(45, 212, 456)" opacity="0.59"></rect><rect width="552" height="3" x="47" y="759.5" rx="1.5" transform="rotate(45, 323, 761)" opacity="0.10"></rect><rect width="175" height="3" x="375.5" y="582.5" rx="1.5" transform="rotate(45, 463, 584)" opacity="0.83"></rect><rect width="487" height="3" x="-72.5" y="335.5" rx="1.5" transform="rotate(45, 171, 337)" opacity="0.97"></rect><rect width="178" height="3" x="422" y="249.5" rx="1.5" transform="rotate(45, 511, 251)" opacity="0.16"></rect><rect width="213" height="3" x="287.5" y="570.5" rx="1.5" transform="rotate(45, 394, 572)" opacity="0.23"></rect><rect width="187" height="3" x="662.5" y="194.5" rx="1.5" transform="rotate(45, 756, 196)" opacity="0.34"></rect><rect width="494" height="3" x="196" y="759.5" rx="1.5" transform="rotate(45, 443, 761)" opacity="0.81"></rect><rect width="258" height="3" x="476" y="427.5" rx="1.5" transform="rotate(45, 605, 429)" opacity="0.50"></rect><rect width="353" height="3" x="207.5" y="694.5" rx="1.5" transform="rotate(45, 384, 696)" opacity="0.90"></rect><rect width="798" height="3" x="54" y="54.5" rx="1.5" transform="rotate(45, 453, 56)" opacity="0.82"></rect><rect width="409" height="3" x="563.5" y="393.5" rx="1.5" transform="rotate(45, 768, 395)" opacity="0.46"></rect><rect width="254" height="3" x="212" y="72.5" rx="1.5" transform="rotate(45, 339, 74)" opacity="0.31"></rect><rect width="344" height="3" x="-67" y="747.5" rx="1.5" transform="rotate(45, 105, 749)" opacity="0.80"></rect><rect width="659" height="3" x="-113.5" y="742.5" rx="1.5" transform="rotate(45, 216, 744)" opacity="0.60"></rect><rect width="269" height="3" x="642.5" y="504.5" rx="1.5" transform="rotate(45, 777, 506)" opacity="0.12"></rect><rect width="198" height="3" x="-69" y="328.5" rx="1.5" transform="rotate(45, 30, 330)" opacity="0.84"></rect><rect width="371" height="3" x="479.5" y="436.5" rx="1.5" transform="rotate(45, 665, 438)" opacity="0.55"></rect><rect width="147" height="3" x="-35.5" y="440.5" rx="1.5" transform="rotate(45, 38, 442)" opacity="0.30"></rect><rect width="73" height="3" x="9.5" y="261.5" rx="1.5" transform="rotate(45, 46, 263)" opacity="0.53"></rect><rect width="351" height="3" x="-68.5" y="627.5" rx="1.5" transform="rotate(45, 107, 629)" opacity="0.79"></rect><rect width="102" height="3" x="49" y="341.5" rx="1.5" transform="rotate(45, 100, 343)" opacity="0.55"></rect><rect width="183" height="3" x="536.5" y="758.5" rx="1.5" transform="rotate(45, 628, 760)" opacity="0.85"></rect><rect width="261" height="3" x="-17.5" y="91.5" rx="1.5" transform="rotate(45, 113, 93)" opacity="0.81"></rect><rect width="152" height="3" x="693" y="593.5" rx="1.5" transform="rotate(45, 769, 595)" opacity="0.13"></rect><rect width="235" height="3" x="127.5" y="363.5" rx="1.5" transform="rotate(45, 245, 365)" opacity="0.53"></rect><rect width="314" height="3" x="535" y="576.5" rx="1.5" transform="rotate(45, 692, 578)" opacity="0.53"></rect><rect width="256" height="3" x="640" y="59.5" rx="1.5" transform="rotate(45, 768, 61)" opacity="0.56"></rect><rect width="427" height="3" x="284.5" y="356.5" rx="1.5" transform="rotate(45, 498, 358)" opacity="0.70"></rect><rect width="472" height="3" x="346" y="669.5" rx="1.5" transform="rotate(45, 582, 671)" opacity="0.45"></rect><rect width="327" height="3" x="45.5" y="68.5" rx="1.5" transform="rotate(45, 209, 70)" opacity="0.23"></rect><rect width="346" height="3" x="319" y="481.5" rx="1.5" transform="rotate(45, 492, 483)" opacity="0.67"></rect><rect width="110" height="3" x="57" y="448.5" rx="1.5" transform="rotate(45, 112, 450)" opacity="0.60"></rect><rect width="180" height="3" x="174" y="666.5" rx="1.5" transform="rotate(45, 264, 668)" opacity="0.36"></rect><rect width="197" height="3" x="-50.5" y="24.5" rx="1.5" transform="rotate(45, 48, 26)" opacity="0.73"></rect><rect width="327" height="3" x="115.5" y="501.5" rx="1.5" transform="rotate(45, 279, 503)" opacity="0.48"></rect><rect width="442" height="3" x="22" y="573.5" rx="1.5" transform="rotate(45, 243, 575)" opacity="0.64"></rect><rect width="287" height="3" x="554.5" y="70.5" rx="1.5" transform="rotate(45, 698, 72)" opacity="0.17"></rect><rect width="175" height="3" x="256.5" y="629.5" rx="1.5" transform="rotate(45, 344, 631)" opacity="0.07"></rect></g></svg>