<svg xmlns="http://www.w3.org/2000/svg" version="1.1" xmlns:xlink="http://www.w3.org/1999/xlink" xmlns:svgjs="http://svgjs.dev/svgjs" viewBox="0 0 800 800"><defs><linearGradient x1="50%" y1="0%" x2="50%" y2="100%" id="ssscribble-grad"><stop stop-color="#170393" stop-opacity="1" offset="0%"></stop><stop stop-color="#170393" stop-opacity="1" offset="100%"></stop></linearGradient></defs><g fill="none" stroke-width="1" stroke="url(#ssscribble-grad)" stroke-linecap="round" stroke-dasharray="55"><path d="M1952.06 539.77C1838.9 564.67 1728.8 589.31 1706.82 613.59 1788.77 637.78 1908.94 661.42 1974.15 684.29 1934.84 706.79 1819.1 728.16 1711.47 748.09 1688.04 767.25 1761.8 784.53 1874.94 799.59 1944.59 813.51 1917.93 824.86 1811.96 833.45 1670.66 843.22 1833.46 849.4 1892.53 848.22 1820.31 848.5 1702.61 849.38 1607.45 852.09 1586.26 858.91 1644.59 869.73 1740.19 885.82 1813.02 908.38 1815.15 937.6 1742.15 973.96 1629.08 1016.65 1532.07 1065.4 1495.03 1119.01 1529.71 1174.52 1609.92 1230.62 1688.2 1284.47 1722.09 1332.45 1689.35 1372.6 1602.02 1402.24 1451.22 1422.33 1430.86 1386.86 1533.28 1345.3 1578.42 1319.04 1574.77 1298.99 1520.92 1290.08 1431.42 1296.72 1333.69 1320.05 1254.89 1360.25 1213.2 1414.56 1215.08 1478.59 1251.54 1545.99 1307.19 1608.78 1358.61 1660.29 1387.68 1694.14 1384.76 1706.87 1346.63 1697.63 1280.98 1668.97 1198.55 1628.41 1115.46 1583.35 1044.78 1543.68 994.37 1519.88 969.56 1517.75 968.29 1540.82 986.97 1587.75 1016.33 1652.22 1047.5 1724.37 1083.81 1817.6 1065.75 1851.43 1010.61 1785.64 959.6 1728.51 903.26 1677.9 845.43 1647.18 786.51 1646.14 731.28 1676.46 681.2 1733.47 634.93 1805.59 594.85 1877.24 560.32 1932.22 529.92 1958.22 503.72 1949.22 480.44 1907.7 459.69 1845.62 440.17 1778.49 420.81 1724.45 402.51 1699.34 383.24 1709.95 362.42 1754.64 341.83 1822.48 319.19 1895.48 294.28 1953.88 269.38 1981.87 242.51 1971.31 213.91 1925.57 185.54 1857.22 155.94 1784.06 125.74 1724.87 96.59 1694.51 67.95 1699.45 40.93 1736.88 16.45 1796.93 -4.73 1862.36 -21.29 1915.89 -33.73 1944.43 -40.21 1939.4 -40.04 1901.6 -36.06 1839.28 -26.5 1765.82 -12.76 1696.87 5.69 1634.93 7.4 1690.83 -29.84 1770.75 -74.52 1816.66 -133.5 1841.86 -203.68 1840.16 -276.92 1811.01 -347.76 1758.35 -407.33 1691.06 -446.96 1619.63 -462.45 1555.49 -451.7 1507.69 -420.68 1482.07 -376.64 1480.18 -332.59 1499.13 -305.33 1534.1 -304.93 1575.78 -339.04 1615.2 -405.15 1645.6 -492.92 1659.41 -584.21 1653.44 -656.3 1627.61 -693.1 1583.81 -685.57 1526.95 -640.95 1462.41 -576.63 1397.26 -519.78 1337.57 -498.57 1287.77 -526.78 1251.74 -602.97 1230.66 -704.39 1224.68 -798.74 1231.42 -852.55 1247.41 -847.96 1270.25 -790.92 1294.38 -710.62 1315.82 -650.99 1332.74 -645.08 1341 -704.9 1339.2 -809.11 1327.38 -914.36 1304.96 -973.14 1273.2 -960.2 1233.26 -886.37 1187.31 -795.51 1137.61 -744.73 1085.15 -768.11 1032.82 -861.21 982.31 -977.07 933.8 -1054.68 889.37 -1051.74 849.51 -974.84 813.87 -874.37 783.1 -818.34 756.73 -849.14 734.49 -953.18 715.75 -1069.21 699.65 -1125.1 686.45 -1087.15 674.67 -983.17 663.54 -889.07 653.95 -873.16 644.04 -952.42 633.28 -1116.28 617.35 -986.13 577.79 -896.94 553.39 -967.08 536.45 -1090.97 517.53 -1175.42 496.61 -1155.93 475.67 -1047.09 452.76 -933.93 427.86 -907.17 402.95 -986.67 376.35 -1108.46 348.1 -1178.12 319.83 -1140.75 289.89 -1025.15 258.31 -917.39 226.72 -896.01 193.53 -972.8 158.85 -1088.85 124.3 -1155.65 88.47 -1123.55 51.66 -1013.44 15.45 -900.24 -21.18 -858.45 -57.7 -912.06 -92.68 -1018.57 -126.56 -1101.45 -158.54 -1102.9 -187.63 -1017.93 -213.59 -898.42 -235.55 -815.02 -253.39 -814.31 -266.31 -888.87 -273.83 -988.09 -277.13 -1045.48 -275.33 -1023.47 -268.88 -930.68 -260.42 -815.57 -249.58 -736.65 -238.01 -729.98 -229.21 -791.22 -223.55 -879.65 -223.28 -944.58 -231.19 -946.2 -247.8 -880.35 -274.37 -773.92 -310.95 -672.94 -356.94 -617.28 -410.9 -624.51 -469.38 -682.97 -529.86 -758.98 -588.33 -815.89 -639.96 -823.34 -681.61 -775.26 -709.8 -685.7 -722.89 -584.71 -720.28 -503.72 -703.12 -464.05 -676.08 -472.44 -642.78 -517.36 -609.3 -605.1 -576.72 -607.51 -618.14 -499.7 -697.43 -410.15 -764.55 -330.83 -833.06 -274.96 -893.96 -248.91 -938.84 -252.57 -961.99 -278.2 -960.48 -317.55 -936.78 -356.47 -895.82 -384.56 -846.61 -396.51 -801.53 -386.62 -770.12 -356 -761.23 -307.23 -779.79 -246.19 -824.26 -179.57 -888.42 -110.93 -961.11 -47.59 -1029.31 7.03 -1079.92 52.47 -1103.52 86.46 -1095.85 110.21 -1059.38 124.58 -1004.48 131.96 -944 135.04 -893.53 133.52 -867.59 131.54 -873.3 130.88 -911.44 129.53 -974.57 131.4 -1048.48 136.95 -1115.83 143.28 -1160.57 153.47 -1171.64 167.25 -1146.22 181.74 -1091.97 199.31 -1022.54 219.58 -956.68 240.07 -913.41 262.84 -904.1 287.75 -932.08 312.65 -990.48 339.39 -1062.21 368.09 -1127.56 397.01 -1169.77 428.31 -1176.67 462.33 -1146.65 497.06 -1087.69 535.02 -1014.43 576.45 -945.05 618.67 -896.22 664.19 -878.74 712.5 -895.11 760.13 -940.48 808.67 -1001.38 856.29 -1061.64 899.32 -1106.78 937.6 -1124.15 968.42 -1109.06 989.85 -1064.29 1000.56 -998.55 999.33 -925.24 988.9 -858.48 969.26 -810.79 943.77 -789.7 920.32 -797.59 901.9 -829.77 895.18 -877 906.62 -928.89 938.22 -972.11 991.06 -996.83 1060.04 -997.69 1139.25 -972.39 1218.28 -924.49 1283.58 -860.73 1326.28 -790.64 1338.61 -724.14 1321.13 -669.54 1279.53 -633.46 1227.02 -618.49 1183.87 -624.64 1164.99 -647.57 1183.26 -680.95 1240.47 -718.95 1327.01 -752.73 1423.1 -775.99 1502.19 -785.14 1544 -776.61 1536.98 -750.61 1488.62 -709.06 1419.5 -655.6 1360.99 -595.18 1343.96 -532.06 1381.66 -471.91 1467.98 -418.83 1573.4 -375.37 1660.43 -343.85 1695.36 -324.48 1667.4 -317.07 1593.25 -319.49 1512.75 -329.09 1472.83 -344.56 1499.48 -361.61 1588.52 -377.46 1743.26 -395.62 1697.38 -390.99 1577.93 -365.36 1576.18 -339.4 1652.85 -307.6 1770.32 -271.27 1863.13 -230.81 1879.65 -188 1812.44 -144.08 1709.12 -98.73 1639.28 -53.96 1654.79 -10.5 1751.72 32.55 1871.2 73.5 1936.68 112.19 1906.75 149.71 1804.3 184.91 1703.8 217.96 1681.31 249.87 1756.59 279.98 1879.93 308.59 1964.03 336.42 1948.77 363.2 1845.94 389.21 1735.26 414.85 1701.62 440.08 1773.78 465.08 1898.06 489.99 1978.82 514.86 1952.06 539.77Q1952.06 539.77 1952.06 539.77" opacity="0.27"></path><path d="M1841.09 294.99C1737.88 317.98 1630.56 339.69 1590.65 360.19 1643.77 380.75 1752.42 400.24 1843.6 418.8 1857.87 437.63 1784.69 455.84 1670.44 473.68 1585.33 492.19 1579.99 510.81 1653.55 529.94 1758.48 550.3 1827.14 571.79 1816.72 594.88 1731.6 619.84 1619.21 647.02 1541.1 676.83 1537.34 708.91 1604.83 743.92 1700.63 781.97 1769.51 821.94 1769.79 864.49 1699.32 909.17 1591.41 954.15 1498.09 999.71 1461.03 1044.72 1493.07 1087.08 1571.92 1126.46 1653.78 1161.34 1696.93 1190.22 1676.48 1212.37 1599.42 1226.71 1495.7 1233.47 1406.77 1232.15 1364.52 1223.2 1380.41 1209.17 1440.93 1190.6 1515.27 1169.8 1571.04 1150.99 1581.33 1135.63 1539.95 1126.78 1458.25 1127.91 1361.98 1140.01 1279.75 1164.39 1232.73 1200.88 1230.61 1248.14 1266.66 1303.7 1325.53 1363.15 1382.82 1422.61 1418.17 1477.03 1419.78 1521.29 1383.54 1551.88 1317.38 1565.9 1233.88 1563.19 1151.08 1544.57 1083.89 1513.31 1041.58 1476.05 1028.75 1438.04 1041.78 1406.37 1074.71 1388.47 1115.29 1388.1 1152.46 1407.92 1179.29 1447.39 1187.29 1502.64 1174.52 1567.28 1141.86 1632.54 1092.68 1689.82 1032.92 1730.8 966.57 1749.9 901.23 1744.67 841.66 1716.69 789.52 1672.89 748.55 1621.32 718.78 1572.74 699.59 1538.71 689.61 1526.36 686.25 1540.14 689.21 1579.48 694.53 1638.13 699.98 1706.06 708.87 1795.44 708.85 1823.06 698.02 1752.66 688.01 1690.98 674.61 1634.61 658.4 1596.86 641.32 1587.67 622.18 1609.28 601.47 1657.76 580.52 1722.84 558.46 1789.71 535.47 1842.87 512.48 1870.02 488.84 1864.35 464.38 1827.62 439.69 1768.6 413.72 1700.42 386.02 1638.15 357.45 1595.25 326.4 1580.17 292.32 1594.98 256.75 1636.08 217.62 1692.78 174.75 1751.94 130.71 1801.28 83.57 1828.86 34.21 1828.62 -13.79 1800.47 -61.26 1748.98 -105.93 1683.72 -144.28 1616.22 -175.56 1558.24 -197.18 1519.04 -208.21 1504.35 -207.58 1514.66 -195.27 1545.86 -175.55 1591.47 -149.55 1640.74 -122.02 1683.62 -101.08 1712.54 -90.2 1720.53 -95.29 1705.55 -120.26 1669.19 -165.45 1615.9 -228.9 1552.9 -302.69 1487.83 -379.32 1429.03 -447.67 1382.96 -507.13 1348.86 -452.38 1389.71 -377.15 1440.63 -343.89 1474.08 -339.88 1499.19 -373.03 1511.97 -439.91 1510.7 -528.06 1493.76 -617.05 1462.41 -683.24 1418.77 -710.53 1366.39 -692.17 1309.43 -638.61 1251.2 -570.26 1196.23 -515.7 1147.64 -501.47 1107.31 -538.13 1077.11 -619.47 1057.22 -777.65 1059.35 -624.55 1113.27 -688.67 1125.21 -840.28 1125.36 -884.13 1087.42 -755.31 1051.19 -701.7 1021.2 -717.89 987.91 -801.71 952.33 -912.45 914.37 -993.9 875.55 -1003.11 836.65 -937.98 796.98 -837.56 758.15 -763.4 720.58 -763.92 683.18 -842.51 647.4 -956.32 613.35 -1038.74 579.78 -1041.23 547.93 -962.85 517.71 -855.34 487.92 -787.82 459.56 -806.64 432.5 -902.36 405.68 -1014.45 379.95 -1069.87 355.2 -1032.26 330.52 -926.11 306.69 -822.9 283.7 -794.11 260.71 -858.2 238.83 -970.37 218.11 -1055.81 197.45 -1056.56 178.08 -972.56 160.12 -857.76 142.4 -784.87 126.31 -797.47 112 -950.27 77.87 -756.59 48.15 -851.96 44.45 -947.87 41.65 -996.41 39.19 -968.51 36.35 -876.74 31.13 -767.56 24.09 -694.62 14.24 -690.69 0.14 -751.79 -18.2 -840.7 -41.61 -909.78 -70.38 -919.96 -104.7 -864 -144.58 -764.52 -188.74 -664.06 -236.99 -602.82 -288.04 -601.9 -339.25 -655.01 -389.62 -732.54 -436.86 -798.43 -478.16 -819.83 -512.1 -785.62 -536.68 -705.57 -550.98 -606.94 -554.34 -521.93 -546.9 -475.01 -531.21 -476.97 -508.47 -519.62 -481.78 -613.6 -445.59 -638.74 -426.32 -535.44 -459.95 -446.24 -501.39 -367.34 -554.42 -313.89 -615.01 -293.45 -677.15 -305.39 -735.38 -340.5 -783.56 -409.85 -823.83 -454.66 -786.08 -400.18 -725.42 -337.77 -684.67 -266.34 -652.76 -194.89 -636.91 -129.14 -642.42 -76.65 -670.02 -40.03 -717.65 -19.74 -779.23 -14.5 -846.29 -20.58 -908.76 -45.58 -969.92 -95.65 -937.04 -104.41 -860.51 -101.55 -808.22 -90.67 -768.7 -72.86 -751.49 -49.31 -762.2 -20.89 -799.69 10.72 -857.89 45.59 -925.93 81.5 -990.45 117.23 -1038.29 154.2 -1059.85 189.75 -1050.44 223.27 -1012.09 257.07 -954.38 288.4 -889.64 317.02 -832.92 345.67 -798.47 371.54 -793.95 394.53 -821.09 417.52 -874.24 437.35 -939.95 454.11 -1002.73 470.89 -1048.92 484.67 -1067.11 495.65 -1053.37 506.91 -1011.08 515.81 -949.07 522.93 -880.65 535.21 -799.59 566.62 -800.57 592.91 -874.03 617.66 -931.01 648.92 -977.69 687.77 -1004.06 732.84 -1004.88 784.9 -978.57 842.74 -929.6 901.73 -866.09 960.97 -798.61 1016.35 -737.96 1079.32 -681.6 1110.02 -711.57 1074.92 -775.16 1024.1 -836.22 981.34 -856.22 1030 -802.65 1093.22 -747.05 1171.67 -684.28 1253.39 -621.44 1322.7 -564.61 1368.19 -519.62 1380.64 -489.75 1360.09 -476.62 1313.42 -479.29 1255.76 -494.88 1209.06 -520.64 1189.77 -550.68 1210.4 -580 1270.91 -605.43 1359 -621.84 1452.31 -626.8 1523.62 -619.65 1553.5 -599.52 1533.72 -567.76 1475.86 -526.03 1403.61 -477.11 1349.12 -424.11 1340.48 -369.12 1386.65 -315.72 1476.47 -266.27 1577.94 -221.88 1654.16 -184.52 1675.49 -154.66 1636.5 -132.38 1557.43 -117.33 1478.46 -108.46 1443 -105.59 1472.8 -106.67 1560.59 -110.2 1707.65 -119.5 1657.29 -133.7 1533.83 -133.98 1520.86 -131.23 1583.37 -124.97 1692.26 -115.34 1789.71 -103.44 1823.46 -88.48 1775.46 -70.88 1677.1 -51.41 1588.46 -29.93 1566.71 -6.94 1629.38 17.28 1741.34 42.4 1835.82 67.98 1855.16 94.23 1787.93 120.48 1677.68 146.42 1598.22 172.63 1602.41 198.26 1690.15 223.1 1804.62 248 1869.88 272 1841.09 294.99Q1841.09 294.99 1841.09 294.99" opacity="0.75"></path><path d="M1730.08 409.55C1636.78 430.62 1534.3 453.16 1480.71 477.1 1505.51 501.03 1592.87 526.35 1692.41 552.98 1749.16 579.56 1730.62 607.36 1646.92 636.26 1541.84 664.94 1469.7 694.49 1465.47 724.67 1528.9 754.25 1623.69 784.03 1699.08 813.59 1716.25 841.91 1664.37 869.34 1567.8 895.31 1470.4 919.17 1415.87 940.74 1425.28 959.42 1490.74 975.14 1577.43 987.28 1642.92 995.4 1656.52 1000.28 1609.23 1001.08 1519.75 997.86 1399.5 973.02 1561.81 939.81 1507.07 945.65 1421.11 958.95 1329.17 979.84 1258.33 1008.83 1226.81 1045.34 1239.87 1088.73 1287.35 1137.62 1351.48 1189.24 1407.46 1241.74 1436.14 1292.21 1427.77 1337.15 1381.79 1374.34 1309.06 1401.18 1224.63 1416.21 1147.57 1418.6 1092.33 1408.53 1066.96 1388.62 1072.72 1360.73 1102.84 1328.55 1148.36 1297.75 1194.61 1271.74 1229.7 1255.02 1246.39 1251.89 1238.55 1263.77 1207.02 1291.42 1155.24 1333.38 1090.61 1386.37 1021.56 1445.59 954.14 1504.63 896.6 1557.54 853 1598.24 824.87 1622.24 812.66 1626.99 813.74 1612.28 826.39 1581.75 845.27 1539.82 866.05 1493.52 896.01 1436.75 916.54 1432.55 902.13 1495.59 883.2 1555.14 858.07 1617.56 828.43 1673.27 794.54 1713.58 758.55 1732.04 721.88 1725.61 683.5 1696.38 646.04 1649.24 610.26 1592.99 574.16 1539.27 540.35 1497.66 509.05 1476.72 477.84 1481.68 449.2 1511.76 423.11 1561.99 397.09 1623.29 373.53 1683.89 352.45 1731.89 331.38 1757.96 313.04 1756.52 297.45 1728.22 281.91 1678.94 269.21 1617.86 259.37 1556.46 246.16 1490.57 232.42 1506.85 229.74 1577.57 226.67 1632.07 223.27 1678.66 218.14 1708.77 208.77 1717.45 195.26 1702.12 175.97 1665.08 149.95 1611.89 116.49 1550.4 74.98 1489.59 27.4 1437.72 -26.42 1401.62 -84.47 1385.1 -141.77 1389.43 -196.71 1411.9 -244.94 1447.43 -281.62 1490.49 -304.51 1532.68 -310.98 1567.06 -301.98 1588.91 -278.53 1593.58 -244.68 1579.94 -209.2 1549.17 -177.6 1504.14 -158.3 1449.65 -159.26 1390.77 -183.34 1333.53 -231.37 1283.03 -297.8 1243.02 -374.81 1216.41 -450.48 1203.96 -510.75 1205.61 -546.05 1218.92 -549.59 1240.64 -523.26 1268.29 -474.48 1296.77 -417.67 1322.27 -372.56 1342.72 -353.54 1354.33 -371.46 1355.65 -426.41 1346.5 -507.98 1326.45 -596.99 1296.72 -669.36 1258.62 -706.59 1214.39 -698.51 1166.44 -651.11 1116.26 -581.87 1066.78 -517.85 1019.89 -487.04 976.41 -504.25 938.21 -569.3 905.87 -662.38 879.5 -753.16 859.29 -809.55 844.65 -812.02 835.49 -761.78 830.54 -681.42 828.74 -609.09 830.28 -578.11 833.15 -607.16 836.37 -688.09 840.64 -789.37 843.83 -868.52 845.38 -891.63 846.39 -849.9 845.05 -764.4 841.21 -679.71 836.13 -638.81 828.46 -666.02 818.37 -751.45 807 -855.34 793.48 -926.9 778.12 -930.8 761.77 -865.83 743.99 -766.92 725.08 -689.4 705.58 -676.04 685.34 -736.96 664.61 -840.67 643.61 -931.18 622.39 -958.09 601.13 -906.61 579.8 -805.2 558.56 -711.9 537.48 -681.74 516.41 -731.16 495.75 -830.45 475.46 -923.51 455.11 -956.64 434.98 -911.76 414.93 -813.44 394.62 -714.73 374.12 -667.31 353.2 -694.52 331.68 -778.84 309.37 -873.19 285.97 -927.68 261.59 -911.95 235.72 -833.36 208.09 -729.39 179.16 -649.47 148.19 -629 115.05 -674.43 80.65 -759.56 44.16 -840.7 5.75 -878.61 -33.19 -852.8 -73.36 -773.56 -114.15 -672.96 -153.88 -592.1 -192.82 -561.02 -229.94 -588.39 -263.73 -657.52 -293.89 -735.47 -319.33 -788.89 -339.29 -792.66 -353.17 -743.7 -360.37 -657.53 -361.6 -563.42 -356.44 -491.41 -345.43 -461.89 -331.02 -480.09 -313.46 -533.84 -294.63 -629.87 -271.28 -631.02 -261.76 -520.07 -286.28 -433.71 -316.5 -363.91 -356.4 -324.32 -404.47 -320.33 -457.58 -347.74 -513.02 -394.5 -566.95 -447.41 -614.95 -489.24 -653.85 -508.67 -680.38 -500.56 -692.82 -464.16 -690.38 -405.83 -673.81 -333.55 -646.74 -259.33 -612.21 -193.23 -575.27 -126.03 -530.8 -117.74 -527.39 -156.45 -580.19 -187.64 -633.36 -213.97 -693.53 -231.25 -753.74 -238.34 -806.42 -232.23 -845.2 -213.69 -864.98 -183.9 -863.9 -145.04 -842.38 -100.14 -804.21 -50.1 -757.09 0.99 -708.41 50.87 -667.11 100.08 -641.97 145.32 -637.61 186.03 -656.33 223.6 -696.48 256.43 -752.16 285.11 -814.8 310.83 -874.16 333.46 -920.31 353.92 -945.18 372.56 -944.87 390.22 -919.21 407.65 -872.91 424.29 -815.68 441.52 -757.75 459.78 -710.58 477.86 -684.39 497.36 -684.02 518.43 -710.09 539.5 -758.09 561.91 -817.62 585.45 -876.81 608.8 -924.93 632.92 -951.86 657.33 -952.65 680.94 -927.54 704.03 -880.75 725.81 -820.85 745.77 -758.42 763.23 -704.12 777.26 -666.76 788.31 -652.19 794.87 -661.55 796.32 -691.82 794.62 -737.5 788.02 -788.95 777.04 -836.6 758.76 -881.35 731.04 -836.07 736.83 -756.55 754.81 -694.81 784.76 -636.57 827.44 -588.89 880.3 -557.03 941.74 -543.79 1007.53 -549 1070.25 -570.91 1125.54 -604.2 1166.93 -642.85 1189.46 -681.67 1191.14 -713.49 1172.09 -733.5 1138.47 -739.21 1096.18 -728.39 1055.23 -701.82 1028.25 -661.66 1022.61 -611.47 1044.65 -555.79 1094.23 -498.73 1165.6 -445.24 1247.42 -399.06 1359.98 -339.83 1215.65 -382.75 1204.6 -415.69 1251.69 -434.43 1331.21 -447.07 1423 -452.24 1500.19 -449.88 1541.09 -438.86 1533.51 -419.67 1483.45 -393.05 1410.51 -359.99 1344.74 -322 1316.18 -279.85 1339.56 -235.59 1411.77 -190.71 1508.52 -145.48 1595.63 -101.9 1640.15 -60.83 1626.22 -22.02 1561.67 13.23 1476.52 44.87 1412.72 73.27 1401.5 98.11 1453.1 119.79 1547.93 138.51 1645.87 154.77 1703.2 169.15 1694.61 181.41 1625.67 192.62 1531.74 203.3 1463.19 212.76 1456.55 222.37 1519.18 232.52 1667.4 247.36 1658.52 282.36 1517.62 303.3 1476.9 317.72 1513.19 333.75 1608.35 351.43 1709.76 369.11 1760.24 388.48 1730.08 409.55Q1730.08 409.55 1730.08 409.55" opacity="0.67"></path><path d="M1619.06 491.44C1535.56 510.59 1439.74 528.54 1376.96 545.26 1376.19 561.94 1436.3 577.32 1527.76 591.35 1608.43 605.26 1639.97 617.7 1608.21 628.62 1527.01 639.32 1431.53 648.42 1362.11 655.87 1346.74 663.13 1389.37 668.8 1468.93 672.95 1551.04 677.14 1598.94 680.09 1592.24 682.06 1532.66 684.66 1442.41 686.88 1355.07 689.19 1301.32 693.12 1298.62 698.04 1343.84 704.6 1417.97 714 1490.02 726.05 1532.11 741.37 1528.37 760.54 1477.86 783.67 1396.5 811.06 1308.39 842.35 1240.03 877.67 1209.3 916.67 1222.09 957.96 1270.06 1001.35 1334.57 1045.69 1394.95 1088.9 1429.86 1130.3 1428.06 1168.24 1388.57 1200.86 1320.17 1227.21 1239.14 1245.99 1134.74 1257.76 1105.91 1229.4 1171.24 1195.73 1242.28 1159.11 1254.92 1112.07 1183.46 1116.58 1115.61 1134.96 1045.08 1164.7 981.12 1204.76 929.91 1252.55 897.14 1305.12 883.68 1358.58 888.69 1408.31 907.81 1450.53 935.35 1481.44 967.58 1498.56 997.01 1500.47 1019.11 1487.26 1032.28 1461.72 1032.94 1426.58 1021.13 1386.56 997.75 1348.17 964.29 1316 923.51 1295.2 876.58 1290.14 827.33 1302.11 778.26 1331.01 729.36 1374.35 684 1427.51 643.07 1484.38 605.62 1537.97 573.31 1581.68 545.71 1609.76 521.86 1618.89 501.8 1607.76 484.59 1578.05 469.98 1535.12 456.9 1484.85 444.49 1435.16 427.73 1382.3 391.24 1399.08 369.49 1467.02 354.51 1523.67 337.5 1577.92 318.34 1620.88 299.18 1645.68 278.11 1647.81 255.25 1627.27 232.51 1587.75 208.23 1535.31 182.72 1478.21 157.73 1425.16 132.09 1383.88 106.41 1360.04 82.08 1356.9 58.7 1373.81 37.18 1407.31 18.27 1452.5 2.52 1501.34 -9.09 1546.2 -18.36 1590.42 -5.41 1562.54 14.95 1495.92 30.03 1440.43 45.67 1384.57 59.39 1334.51 67.31 1283.05 21.85 1280.61 -39.05 1322.14 -92.61 1359.02 -153.04 1395.82 -215.79 1427.64 -273.84 1451.29 -322.99 1462.72 -357.52 1460.4 -373.59 1444.38 -369.84 1415.34 -347.13 1375.7 -311.65 1328.19 -269.09 1276.64 -228.65 1224.79 -201.6 1175.62 -194.46 1132.57 -212.88 1097.79 -256.99 1072.64 -322.04 1057.76 -398.52 1052.66 -472.11 1056.95 -530.33 1068.44 -561.49 1084.96 -560.16 1105.42 -527.93 1126.46 -473.9 1145.89 -392.28 1169.07 -398.17 1177.63 -506.27 1160.19 -590.73 1140.02 -657.96 1114.07 -689.29 1083.4 -677.1 1048.56 -626.56 1010.99 -555.54 971.87 -491.27 931.33 -457.11 891.08 -468.95 851.9 -526.63 813.53 -613.51 777.33 -701.68 743.59 -760.95 711.83 -771.51 682.82 -730.21 656.45 -655.31 632.27 -576.7 610.46 -527.93 590.67 -532.05 572.73 -589.93 556.29 -681.16 540.95 -769.85 526.89 -820.75 513.4 -812.77 500.13 -750.75 487.61 -661.78 474.89 -586.2 461.69 -560.05 448.88 -596.31 435.3 -680.77 420.8 -776.01 406.45 -838.99 391 -840.14 374.37 -779.28 357.77 -684.43 339.92 -600.93 320.76 -570.07 301.61 -605.86 281.37 -690 260.13 -782.88 238.93 -839.62 216.78 -834.06 193.82 -768.96 171.01 -673.54 147.54 -590.13 123.61 -554.42 100.07 -580.14 76.34 -653.3 52.73 -741.17 29.87 -803.47 7.55 -812.99 -13.85 -765.12 -33.98 -678.33 -52.66 -586.69 -69.47 -524.43 -84.45 -513.63 -97.03 -554.66 -106.85 -667.53 -116.79 -726.97 -118.28 -619.13 -110.56 -489.94 -87.46 -652.82 -69.63 -653.46 -81.02 -601.43 -96.64 -523.81 -118.57 -440.47 -147.1 -370.45 -181.61 -329.8 -221.66 -324.53 -266.21 -352.55 -313.05 -402.22 -360.94 -457.73 -407.69 -504.86 -450.49 -529.08 -487.69 -523.91 -517.09 -489.22 -537.11 -430.75 -546.74 -359.17 -545.48 -285.11 -534.6 -221.16 -514.82 -175.56 -488.27 -152.52 -459.04 -152.64 -429.46 -171.73 -403.26 -205.01 -384.92 -243.2 -376.52 -278.38 -380.44 -305.76 -398.07 -318.69 -428.75 -315.17 -470.93 -295.34 -521.29 -260.57 -575.91 -214.59 -629.88 -160.11 -677.88 -102.68 -715.48 -46.46 -738.8 6.87 -745.9 53.14 -736.15 91.02 -711.03 120.63 -675.02 141.33 -632.41 154.34 -589.38 160.52 -541.01 149.36 -545.55 140.85 -603.87 134.98 -657.86 131.6 -714.97 131.16 -767.56 133.37 -820.18 154.67 -797.88 172.52 -730.35 185.75 -677.03 200.84 -627.46 217.47 -589.85 234.25 -571.22 252.28 -574.31 271.43 -599.09 290.59 -642.05 310.65 -695.32 331.7 -750.06 352.91 -798.16 375.42 -831.14 399.49 -843.92 424.13 -834.97 450.83 -805.21 479.93 -759.27 509.99 -703.96 542.82 -647.18 578.55 -596.85 615.12 -559.74 654.31 -540.34 695.64 -540.33 736.46 -559.28 777.9 -593 818.61 -635.78 855.79 -681.85 889.44 -723.36 917.64 -754.26 938.64 -770.72 951.56 -769.43 955.15 -750.34 950.47 -715.5 937 -668.51 916.01 -614.53 892.14 -558.92 866.62 -507.43 843.6 -464.79 829.07 -434.5 825.28 -418.58 835.97 -417.14 862.94 -429.51 905.9 -452.47 962.8 -482.25 1027.5 -515.76 1094.71 -547.7 1156.5 -574.18 1218.13 -596.82 1199.83 -566.73 1133.52 -516.32 1088.21 -472.23 1055.44 -423.82 1045.85 -374.04 1065.78 -325.03 1114.49 -279.81 1185.51 -240.28 1264.91 -207.57 1337.85 -182.83 1388.5 -166.12 1405.87 -157.49 1387.2 -155.88 1338.5 -160 1247.98 -175.64 1217.59 -217 1318.79 -234.45 1461.73 -241.88 1297.11 -193.69 1292.92 -159.52 1353.91 -132.88 1443.37 -104.19 1530.6 -74.12 1584.09 -42.43 1584.95 -10.25 1533.51 21.89 1452.69 54.68 1375.88 86.85 1337.11 118.12 1355.74 149.44 1426.28 179.59 1521.55 208.46 1602.11 237.13 1634.37 264.48 1604.3 290.52 1526.53 316.35 1435.81 340.95 1374.48 364.36 1372.69 387.64 1432.26 409.85 1527.05 431 1613.13 452.12 1649.92 472.27 1619.09 491.43Q1619.06 491.44 1619.06 491.44" opacity="0.46"></path><path d="M1508.06 260.43C1434.25 277.68 1346.6 294.92 1279.07 312.2 1257.18 329.53 1288.21 346.97 1358.97 364.63 1442.78 382.46 1506.87 400.68 1527.42 419.42 1497.12 438.54 1426.29 458.42 1339.95 479.21 1232.56 522.61 1299.92 571.07 1442.62 625.57 1479.19 683.11 1356 746.36 1207.22 813.74 1183.57 879.33 1291.94 942.94 1398.82 999.24 1385.02 1042.47 1251.92 1069.56 1114.97 1076.59 1079.29 1066.59 1154.89 1040.33 1255.72 1004.83 1290.51 974.99 1219.18 958.3 1087.27 966.43 968 1006.29 922.92 1075.59 954.5 1165.3 1029.97 1256.51 1090.16 1330.53 1098.31 1368.33 1046.91 1362.58 951.75 1316.91 844.91 1249.59 747.94 1192.42 683.28 1169.24 652 1197.27 650.16 1273.44 664.39 1373.69 681.12 1461.69 699.91 1503.75 707.16 1483.41 701.53 1410.33 696.52 1365.55 688.65 1321.93 678.33 1285.24 666.91 1261.07 653.64 1252.28 638.99 1260.58 623.79 1285.72 607.71 1324.62 591.06 1372.68 574.28 1423.98 557.2 1471.85 539.96 1509.88 522.72 1533.16 505.51 1538.17 488.25 1524.53 470.84 1494.43 453.09 1451.54 434.7 1401.43 415.78 1350.35 395.7 1304.43 374.05 1268.96 351.3 1248.02 326.38 1243.39 298.86 1254.87 239.46 1318.36 168.33 1403.31 86.98 1468.09 7.68 1484.2 -67.78 1440.39 -125.7 1353.38 -154.18 1253.52 -147.79 1174.61 -107.44 1138.6 -57.22 1151.79 -17.03 1200.48 -18.77 1260.53 -80.07 1310.58 -191.59 1327.62 -316.39 1304.73 -397.32 1245.81 -399.59 1162.94 -325.51 1073.68 -238.8 991.83 -210.51 930.97 -286.02 895.55 -427.57 885.97 -541.56 895.76 -541.79 915.8 -390.9 952.24 -563.89 963.83 -633.75 928.42 -510.25 890.6 -409.51 844.96 -465.54 795.26 -627.69 741.37 -711.52 687.74 -617.44 636.45 -537.76 610.52 -472.8 585.48 -447.54 561.46 -473.15 537.4 -541.48 514.41 -628.71 492.55 -702.87 470.7 -736.48 449.97 -716.31 430.39 -650.52 410.83 -563.74 392.41 -489.93 375.16 -459.1 357.92 -482.67 342.06 -550.42 327.58 -671.33 306.54 -674.57 271.37 -553.57 257.18 -479.13 248.13 -442.81 240.36 -455.56 233.78 -644.64 214.91 -436.01 180.45 -464.32 150.71 -597.38 118.74 -630.95 75.71 -522.48 19.7 -369.85 -46.47 -308.48 -121.92 -372.43 -201.27 -486.34 -274.46 -531.07 -335.59 -461.53 -375.35 -321.42 -389.27 -205.11 -375.76 -175 -339.12 -274.15 -275.14 -297.63 -282.55 -136.53 -396.21 -29.34 -492.16 34.33 -574.27 50.45 -618.24 26.58 -612.99 -13.08 -562.19 -46.92 -487.6 -68.27 -425.86 -63.67 -404.49 -36.36 -440.05 8.84 -524.28 65.28 -625.7 124.52 -702.51 155.94 -720.65 186.45 -721.89 215.57 -706.01 244.98 -675.6 272.59 -633.92 298.22 -586.26 323.84 -539.56 347.41 -499.24 368.88 -470.86 390.32 -458.94 409.69 -464.82 426.93 -488.08 444.17 -526.11 459.08 -573.09 471.7 -622.67 501.37 -706.32 524.94 -623.25 527.19 -547.07 532.97 -460.68 540.42 -423.86 557.77 -446.46 593.02 -514.99 649.67 -592.79 730.78 -643.69 824.38 -646.45 922.32 -595.18 1002.81 -507.26 1043.32 -409.18 1034.6 -330.09 980.56 -288.42 917.14 -290.31 879.4 -325.93 906.56 -376.42 1003.6 -425.42 1135.92 -451.68 1237.79 -446.36 1252.87 -409.29 1179.6 -345.26 1080.21 -266.08 1051.38 -181.24 1134.51 -103.65 1284.32 -40.51 1384.18 5.61 1356.23 33.49 1234.36 46.88 1187.48 44.54 1441.46 27.42 1267.07 31.43 1228.46 39.5 1353.97 54.92 1501.83 76.55 1521.23 88.27 1490.79 101.2 1421.39 115.15 1307.57 137.04 1321.05 184.46 1444.97 209.39 1514.44 226.16 1538.89 243.19 1508.06 260.43Q1508.06 260.43 1508.06 260.43" opacity="0.42"></path><path d="M1397.06 507.01C1254.43 537.66 1149.43 570.87 1196.24 606.08 1339.19 640.81 1415.71 676.56 1342.91 711.99 1194.2 745.31 1116.72 776.16 1176.34 802.51 1305.55 824.18 1369.09 838.8 1303.81 844.77 1111.16 841.08 1215.62 799.55 1273.07 782.17 1184.97 785.4 1053.29 803.44 955.9 840.16 939.22 895.13 997.05 965.56 1078.73 1044.77 1133.55 1120.95 1122.31 1184.62 1049.27 1224.4 939.7 1234.42 834.82 1213.44 763.8 1167.52 737.79 1113.88 752.54 1066.93 788.88 1044.75 833.84 1060.65 864.59 1114.46 872.66 1196.34 859.06 1285.03 823.29 1356.27 773.62 1388.07 712.8 1372.28 650.23 1314.26 591.31 1235.58 531.81 1169.49 479.57 1140.85 434.98 1164.29 391.09 1234.19 353.94 1324.25 323.29 1398.88 292.64 1427.99 269.21 1398.74 253.4 1324.21 236.19 1188.68 230.23 1355.8 181.37 1346.37 120.18 1285.03 37.63 1200.14 -57.65 1114.31 -176.12 1029.71 -175.75 1066.07 -80.41 1135.28 -51.23 1170.64 -82.07 1182.11 -177.07 1166.6 -298.93 1126.13 -395.01 1065.79 -414.53 994.67 -353.33 919.19 -255.79 848.92 -199.6 789.21 -241.55 741.75 -366.08 708.55 -492.57 687.57 -490.3 676.58 -331.54 680.34 -519.79 679.24 -565.3 672.6 -378.8 630.47 -570.58 596.94 -623.45 572.75 -521.56 545.19 -378.93 514.54 -362.4 483.89 -487.64 450.88 -609.07 415.36 -591.91 379.41 -452.51 340.15 -337.63 297.09 -360.45 252.84 -487.07 204.15 -580.86 151.13 -545.83 97.6 -409.25 41.2 -291.69 -16 -286.99 -69.21 -384.66 -118.22 -487.08 -158.96 -503.68 -188.3 -412.31 -203.97 -277.74 -203.76 -185.23 -191.29 -186.27 -166.65 -260.45 -135.02 -350.08 -107.75 -386.27 -89.5 -344.48 -89.21 -241.09 -113.86 -123.55 -163.58 -37.7 -235.13 -6.87 -317.39 -29.86 -397.81 -81.19 -460.37 -137.71 -492.26 -168.57 -487.21 -163.19 -447.34 -122.7 -388.85 -55.22 -328.93 23.98 -290.06 108.36 -291.03 183.32 -335.08 244.48 -413.52 294.6 -503.7 331.53 -577.61 359.9 -609.94 381.63 -590.99 401.31 -527.01 422.69 -442.63 442.64 -374.16 467.35 -348 497.99 -377.09 528.65 -451.71 564.52 -538.67 604.27 -602.52 642.59 -619.91 681.74 -582.26 717.82 -504.35 757 -362.86 681.35 -513.9 683.33 -516.89 728.27 -467.37 807.99 -390.73 911.74 -305.17 1044.63 -199.77 1012.29 -162.32 911.34 -211.02 909.7 -250.06 984.13 -278.4 1109.96 -289.52 1220.34 -282.38 1255.53 -254.81 1194.95 -210.8 1092.3 -153.73 1030.61 -89.78 1074.54 -24.53 1204.28 40.83 1326.94 100.68 1344.74 153.46 1249.66 200.61 1133.03 240.44 1115.27 274.38 1226.33 303.65 1367.61 329.58 1402.29 354.06 1299.26 376.44 1168.87 399.52 1157.73 424.49 1285.19 448.99 1413.57 476.35 1397.09 507Q1397.06 507.01 1397.06 507.01" opacity="0.53"></path><path d="M1286.06 387.39C1162.99 414.21 1052.05 436.68 1048.7 454.99 1211.2 480.58 1150.32 514.94 1004.57 527.41 1028.46 537.99 1128.97 549.74 1224.16 564.73 1244 585.73 1169.3 613.05 1047.55 648.5 948.24 691.79 924.27 743.57 975.79 802.78 1065.54 864.76 1132.71 927.86 1138.32 986.94 1076.76 1035.6 973.26 1070.18 869.65 1086.04 798.67 1083.02 779.94 1061.05 806.42 1024.2 889.84 964.11 937.17 930.87 862.83 994.89 786.82 1065.41 708.04 1143.17 636.5 1212.63 573.61 1258.92 526.05 1271.9 491.94 1248.19 468.68 1196.67 453.19 1130.16 440.76 1068.47 432.57 1033 422.34 1034.31 407.67 1074.91 393.68 1145.03 373.63 1224.15 346.81 1287.88 319.99 1316.48 287.04 1299.95 248.78 1244.62 211.21 1167.73 169.97 1091.29 127.58 1036.17 89.43 1016.39 55.23 1034.09 29.83 1080.79 15.28 1143.54 15.21 1201.48 31.62 1238.46 56.68 1246.1 90.14 1219.89 122.1 1165.77 136.22 1093.85 125.85 1017.87 81.74 950.68 7.24 901.31 -87.85 875.45 -182.05 872.56 -246.91 890.55 -265.01 920.77 -229.17 954.66 -125.71 999.23 -146.6 1003.25 -312.79 958.25 -392.24 913.04 -394.27 860.95 -318.88 805.99 -221.05 748.73 -168.2 693.8 -207.71 642.95 -322.56 594.7 -440.52 551.72 -479.55 513.64 -414.29 478.6 -296.4 447.28 -223.84 418.57 -263.24 391.54 -387.78 365.6 -497.27 339.91 -499.23 314.66 -391 288.77 -267.93 261.95 -243.91 235.13 -337.82 208.01 -462.52 181.02 -509.76 154.48 -436.8 128.93 -305.45 105.39 -219.55 83.52 -242.15 65.15 -345.69 51.53 -446.47 40.94 -461.81 36.28 -379.56 38.06 -208.16 47.23 -279.39 80.84 -378.21 89.4 -355.18 82.43 -264.97 63.78 -151.73 30.82 -61.65 -16.2 -29.02 -75.83 -54.06 -144.15 -118.1 -213.2 -183.18 -276.89 -219.51 -326.56 -213.98 -355.35 -164.24 -359.35 -85.95 -337.91 5.8 -298.65 89.13 -248.66 152.07 -200.67 191.37 -170.46 206.23 -166.1 204.13 -193.39 188.06 -250.03 169.37 -325.42 154.62 -403.31 140.98 -465.15 136.77 -495.66 141.85 -486.25 150.64 -441.49 166.67 -372.94 187.79 -301.35 210.19 -251.32 235.29 -237.5 262.11 -266.08 288.93 -329.81 316.83 -406.21 346.68 -471.03 377.8 -506.34 413.24 -499.76 455.03 -453.95 500.54 -381.92 554.43 -302.6 616.73 -235.94 680.14 -197.08 746.46 -192.59 809.01 -219.22 857.59 -269.02 888.05 -324.92 892.79 -371.53 873.89 -399.1 833.32 -398.16 782.89 -368.79 745.94 -315.73 736.12 -247.5 768.96 -174.93 843.67 -106.41 945.58 -50.96 1044.77 -12.78 1104.96 6.5 1105.81 8.74 1047.4 -1.53 965.83 -22.23 905.49 -45.42 910.38 -66.06 989.98 -83.93 1110.25 -92.96 1207.84 -92.21 1227.04 -83.62 1159.2 -65.62 1052.31 -40.14 989.72 -8.65 1022.52 27.23 1138.44 65.31 1257.1 106.07 1292.52 146.6 1216.97 185.54 1095.97 225.19 1030.9 262.25 1083.45 296.1 1213.45 330.04 1310.08 360.57 1286.06 387.39Q1286.06 387.39 1286.06 387.39" opacity="0.82"></path><path d="M1175.08 310.92C1071.87 333.91 964.46 359.34 922.78 387.15 971.83 415.16 1075.5 445.91 1165.2 479.48 1186.04 513.55 1123.17 550.68 1013.94 590.7 917.25 630.86 883.02 673.24 921.67 716.83 1008.16 758.58 1090.3 799.25 1124.4 836.79 1093.39 868.68 1008.85 894.01 906.67 910.57 823.41 918.22 787.66 915.45 803.28 902.14 858.7 882.32 925.03 856.04 975.23 826.99 993.78 802.41 971.14 784.41 914.77 778.1 835.86 788.24 753.04 815.37 680.99 859.38 626.61 916.43 596.32 981.16 587.21 1045.63 606.3 1119.48 669.31 1125.66 685.31 1058.06 687.99 1003.06 681.69 953.74 668.37 921.96 651.43 917.46 630.47 941.65 607.59 991.23 583.72 1056.69 559.86 1123.74 536.87 1176.89 513.89 1204.03 492.31 1197.89 471.4 1160.85 449.5 1101.92 426.34 1033.58 399.92 970.14 369.89 923.91 333.61 902.58 289.21 907.97 239.81 938.16 182.37 983.79 118.95 1034.13 57.62 1080.85 -0.5 1112.43 -47.69 1123.21 -76.33 1112.09 -82.68 1079.28 -63.73 1029.88 -27.12 969.58 21.47 906.12 67.5 846.41 90.97 794.88 82.05 756.08 33.36 731.19 -46.95 720.53 -141.98 721.78 -224.54 731.55 -267.31 748.95 -257.16 768.23 -197.84 786.05 -119.58 802.99 -57.32 814.16 -46.82 818.63 -101.42 818.3 -202.3 810.87 -305.63 797.29 -361.14 779.29 -341.87 756.82 -258.15 731.36 -161.89 703.36 -110.01 674.14 -139.72 644.87 -238.29 614.62 -348.73 585.4 -402.32 557.92 -365.19 530.24 -260.11 504.73 -156.9 481.74 -128.11 458.75 -191.02 438.83 -300.43 421.73 -385.25 404.43 -388.44 389.53 -309.36 376.42 -195.53 362.33 -113.47 348.97 -105.76 335.26 -171.99 319.02 -267.75 300.66 -336.47 278.82 -341.32 252.55 -276.57 221.13 -173.78 183.72 -76.54 141.51 -25.05 93.69 -32.72 41.32 -90.04 -11.93 -164.37 -65.42 -221.43 -115.71 -239.83 -158.38 -208.96 -191.2 -139.8 -210.67 -49.75 -215.91 36.05 -205.8 99.68 -181.41 132.79 -148.84 133.85 -110.98 111.67 -74.62 73.24 -49.16 34.22 -38.62 4.46 -48.01 -14.17 -79.29 -14.72 -129.61 1 -193.18 30.22 -260.37 69.52 -320.97 113.7 -364.13 162.95 -382.49 211.03 -372.14 255.41 -334.78 300.06 -280.22 339.44 -218.63 373.23 -164.25 406.72 -131.76 434.99 -127.95 457.97 -155.09 480.96 -208.24 498.13 -272.96 509.42 -333.87 520.41 -378.9 525.15 -396.33 523.85 -382.96 522.84 -342.31 517.34 -282.01 509.8 -214.04 507.33 -150.33 508.86 -101.63 519.47 -74.52 543.59 -72.03 582.98 -91.18 639.37 -125.59 706.87 -169.55 782.54 -212.01 856.4 -245.12 914.02 -265.19 947.17 -266.72 946.95 -249.73 916.21 -216.27 861.97 -169.58 802.05 -114.87 763.03 -55.68 760.85 2.16 806.39 54.86 890.6 101.07 990.52 138.06 1071.78 165.84 1103.39 184.71 1074.17 196.02 997.44 201.88 915.15 202.09 869.14 200.26 890.84 198.35 976.41 194.6 1087.13 193.05 1166.34 194.6 1171.6 196.29 1100.51 201.75 995.56 211.04 925.35 220.82 935.3 234.19 1024.67 250.96 1138.63 267.92 1203.87 287.94 1175.08 310.92Q1175.08 310.92 1175.08 310.92" opacity="0.49"></path><path d="M1064.09 539.27C980.61 558.43 884.81 577.04 821.23 594.89 817.72 612.53 872.87 628.98 958.75 643.77 1038.15 657.75 1074.14 669.34 1052.45 677.98 981.78 685.12 889.26 688.64 808.59 688.19 765.57 686.13 771.61 680.19 818.41 670.74 920.29 655.29 968.6 625.61 880.79 621.21 799.77 627.47 724.77 641.47 669.29 664.5 639.95 696.6 638.45 737.25 658.64 785.02 695.16 836.44 735.43 889.06 770.38 938.69 802.82 996.12 770.21 1021.17 716.73 983.42 671.74 944.48 625.36 900.32 580.63 857.54 535.27 824.56 494.19 805.43 457.99 804.48 422.79 823.85 392.22 861.09 365.87 911.66 339.97 968.52 317.51 1022.91 298.36 1065.87 279.2 1090.67 263.79 1092.36 252.38 1071.42 241.41 1031.93 235.22 979.59 234.29 922.46 234.36 868.43 239.95 824.54 250.55 795.75 260.53 785.11 272.88 792.02 284.67 813.65 289.69 847.33 287.84 886.04 274.78 923.93 247.89 957.83 206.14 981.48 149.77 992.3 85.3 990.19 16.51 974.12 -47.4 946.01 -95.01 907.96 -119.82 863.08 -115.59 814.85 -85.21 765.02 -34.12 717.32 24.26 673.82 69.41 634.88 88.17 602.32 68.94 576.13 12.04 555.95 -70.75 541.27 -157.6 530.86 -221.49 524.86 -243.15 521.13 -214.16 518.38 -63.42 513.33 -252.35 488.07 -283.02 470.05 -223.24 457 -129.38 440.93 -45.9 421.78 -15.07 402.62 -50.01 380.83 -131.7 356.56 -222.76 332.28 -279.15 305.5 -276.45 276.44 -216.52 247.45 -124.38 216.39 -37.44 183.72 12.44 151.73 9.09 118.95 -40.57 86.33 -116.18 55.88 -185.02 27.23 -221.58 1.78 -214.08 -19.26 -163.24 -35.12 -85.32 -44.47 -0.07 -47.81 69.61 -43.77 109.74 -32.24 115.08 -16.15 89.88 5.24 46.21 29.95 -27.33 63.56 -68.89 92.34 -20.95 71.88 32.23 41.12 92.15 -1.08 151.96 -52.06 210.13 -107.04 260.07 -161.36 300.52 -209.09 333.14 -244.76 356.93 -264.15 374.19 -264.33 385.89 -246.36 394.65 -211.63 402.83 -164.99 408.86 -115.25 416.77 -68.55 427.81 -32.84 438.43 -15.68 453.1 -19.31 472.26 -44.09 491.41 -87.05 514.61 -139.5 541.3 -192.57 567.57 -239.35 596.43 -270.96 626.53 -282.94 654.48 -274.61 681.21 -246.34 704.27 -202.55 721.76 -148.97 732 -92.33 732.58 -39.34 725.33 4.74 707.76 35.76 681.05 51.98 652.69 52.67 623.31 40.28 599.64 18.28 590.9 -11.39 600.08 -42.68 631.8 -71.48 684.47 -96.62 754.1 -113.37 831.09 -120.36 899.88 -118.29 948.98 -105.99 966.27 -84.84 948.75 -56.09 900.39 -21.46 835.1 16.84 777.12 58.41 744.84 100.52 754.43 141.64 808.08 182.55 892.54 220.86 982.18 256.12 1045.9 289.77 1061.72 320.27 1022.65 347.89 946.51 374.02 863.52 397.91 810.99 420.07 815.68 441.4 877.71 461.72 972.56 481.4 1058.03 500.86 1094.92 520.11 1064.09 539.27Q1064.09 539.27 1064.09 539.27" opacity="0.75"></path><path d="M953.09 291.01C810.48 321.66 704.28 346.02 742.56 365.73 877.01 387.39 957.85 408.4 907.13 433.1 768.96 465.74 656.75 508.68 641.91 565.06 717.69 630.94 809.09 706.45 849.21 783.2 817.85 847.49 728.29 890.46 623.7 899.92 527.44 876.79 465.41 823.81 433.85 757.34 426 706.96 427.1 689.13 423.45 717.94 422.95 789.64 408.75 880.24 378.1 954.87 347.45 983.98 301.79 953.82 244.49 879.48 190.33 788.83 133.47 712.02 88.2 670.12 66.64 671.43 78.2 706.25 127.22 755.96 184.56 808.69 230.12 842.24 221.3 849.24 141.01 831.9 13.27 790.91 -94.42 735.96 -111.49 671 -26.78 605.71 88.92 545.86 117.17 487.54 18.88 437.22 -127.38 394.64 -177.49 353.55 -77.51 317.9 65.09 287.24 20.65 244.49 -81.87 197.72 109.53 200.2 87.52 214.34 -62.77 245.67 79.72 221.34 196.19 174.17 265.36 104.28 281.12 19.64 252.99 -61.98 211.61 -124.29 180.82 -148.08 157.94 -128.66 158.36 -69.3 175.78 9.51 199.63 72.02 229.58 95.99 260.23 66.9 290.88 -7.71 320.79 -92.11 354.74 -151.98 395.13 -168.98 450.47 -133.71 526.47 -60.87 610.38 28.06 702.24 108.53 777.61 163.58 809.09 186.04 783.92 179.42 707.63 155.3 634.67 118.73 612.28 87.23 682.02 68.59 813.58 59.45 925.47 66.97 927.74 87.45 824.18 115.87 710.86 150.62 712.43 186.76 841.51 224.86 969.57 260.36 953.09 291.01Q953.09 291.01 953.09 291.01" opacity="0.56"></path><path d="M842.09 415.66C738.88 438.65 631.29 467.97 586.26 502.57 626.72 536.85 719.16 575.54 803.85 616.44 838.08 654.55 800.9 691.1 714.93 721.87 612.84 743.89 533.76 754.3 495.51 749.67 499.71 733.41 532.58 703.18 573.43 662.92 630.02 607.77 637.63 591.37 604.49 657.42 576.55 723.3 549.39 790.71 526.41 843.87 503.42 871.03 485.68 863.98 470.26 826.6 451.14 768.24 427.13 700.34 391.52 635.99 344.21 584.17 279.8 551.27 201.06 537.98 124.78 544.08 58.91 562.53 24.57 586.26 32.69 615 84.52 638.72 162.67 654.04 224.71 664.98 241.27 665.8 190.19 657.92 88.65 645.93 -16.87 628.17 -66.2 607.1 -30.04 584.78 72.88 561.5 176.09 538.51 204.88 515.52 144.32 493.91 40.82 472.87 -42.56 450.59 -51.11 426.53 15.39 398.69 122.34 366.73 217.06 328.05 263.57 281.68 252.05 230.93 199.85 174.21 138.12 115.34 84.39 61.48 63.12 15.76 74.89 -14.27 113.52 -24.92 169.01 -12.65 227.83 22.31 290.75 69.81 345.24 124.63 388.67 174.12 430.59 202.63 462.89 205.03 485.87 177.89 508.86 124.74 521.46 61.99 522.89 4.97 522.82 -37.67 510.15 -53.67 487.07 -41.66 468.09 -5.79 450.46 48.31 447.27 110.65 470.93 174.85 525.2 232.34 609.06 278.73 740.65 324.79 756.21 354.82 629.05 357.2 579.4 356.14 601.03 359.27 693.29 368.35 805.67 377.1 870.88 392.67 842.09 415.66Q842.09 415.66 842.09 415.66" opacity="0.27"></path><path d="M731.09 486.67C534.26 524.3 655.77 509.02 693.95 465.09 618.08 449.65 515.3 453.77 431.96 492.79 357.92 566.55 309.52 658.25 278.87 732.87 248.22 761.98 238.22 729.97 259.14 657.62 289.36 568.76 344.3 488.46 380 431.41 343.31 396.94 227.47 379.85 91.7 367.34 48.47 361.6 144.48 346.4 287.09 315.75 303.57 285.1 188.6 241.9 81.37 194.52 75.9 153.91 178.92 123.16 300.64 117.45 391.9 134.32 424.24 182.11 427.88 248.5 412.01 298.39 411.91 317.98 442.56 288.89 473.22 214.27 531.71 134.99 600.7 83.69 650.18 67.13 665.69 95.52 614.59 151.13 533.05 223.27 462.54 295.05 490.48 354.47 620.18 411.57 747.57 456.02 731.09 486.67Q731.09 486.67 731.09 486.67" opacity="0.29"></path></g></svg>